<mxfile host="app.diagrams.net" agent="Mozilla/5.0 (X11; Linux x86_64) AppleWebKit/537.36 (KHTML, like Gecko) Chrome/135.0.0.0 Safari/537.36" version="26.2.13">
  <diagram name="Page-1" id="vTLdhLMDzEt4X6IVa9T1">
    <mxGraphModel dx="1014" dy="534" grid="1" gridSize="10" guides="1" tooltips="1" connect="1" arrows="1" fold="1" page="1" pageScale="1" pageWidth="1100" pageHeight="850" math="0" shadow="0">
      <root>
        <mxCell id="0" />
        <mxCell id="1" parent="0" />
        <mxCell id="_rXOLrQLvxj1EaKKoI4X-3" value="&lt;font&gt;USER&lt;/font&gt;" style="rounded=0;whiteSpace=wrap;html=1;fillColor=none;fontSize=11;" parent="1" vertex="1">
          <mxGeometry x="422" y="185" width="90" height="40" as="geometry" />
        </mxCell>
        <mxCell id="_rXOLrQLvxj1EaKKoI4X-31" value="" style="ellipse;whiteSpace=wrap;html=1;aspect=fixed;fillColor=light-dark(#FFFFFF,#FFFFFF);fontSize=11;" parent="1" vertex="1">
          <mxGeometry x="446" y="122" width="10" height="10" as="geometry" />
        </mxCell>
        <mxCell id="_rXOLrQLvxj1EaKKoI4X-32" value="id" style="text;html=1;align=center;verticalAlign=middle;resizable=0;points=[];autosize=1;strokeColor=none;fillColor=none;fontSize=11;" parent="1" vertex="1">
          <mxGeometry x="448" y="112" width="30" height="30" as="geometry" />
        </mxCell>
        <mxCell id="_rXOLrQLvxj1EaKKoI4X-33" value="email" style="text;html=1;align=center;verticalAlign=middle;resizable=0;points=[];autosize=1;strokeColor=none;fillColor=none;fontSize=11;" parent="1" vertex="1">
          <mxGeometry x="472" y="140" width="50" height="30" as="geometry" />
        </mxCell>
        <mxCell id="_rXOLrQLvxj1EaKKoI4X-43" value="name" style="text;html=1;align=center;verticalAlign=middle;resizable=0;points=[];autosize=1;strokeColor=none;fillColor=none;fontSize=11;" parent="1" vertex="1">
          <mxGeometry x="458" y="125" width="50" height="30" as="geometry" />
        </mxCell>
        <mxCell id="_rXOLrQLvxj1EaKKoI4X-44" value="" style="ellipse;whiteSpace=wrap;html=1;aspect=fixed;fillColor=none;fontSize=11;" parent="1" vertex="1">
          <mxGeometry x="458" y="137" width="10" height="10" as="geometry" />
        </mxCell>
        <mxCell id="ANEjqbXVITIKJhGTVzRm-20" value="password" style="text;html=1;align=center;verticalAlign=middle;resizable=0;points=[];autosize=1;strokeColor=none;fillColor=none;fontSize=11;" parent="1" vertex="1">
          <mxGeometry x="487" y="155" width="70" height="30" as="geometry" />
        </mxCell>
        <mxCell id="ANEjqbXVITIKJhGTVzRm-21" value="" style="ellipse;whiteSpace=wrap;html=1;aspect=fixed;fillColor=none;fontSize=11;" parent="1" vertex="1">
          <mxGeometry x="487" y="165" width="10" height="10" as="geometry" />
        </mxCell>
        <mxCell id="ANEjqbXVITIKJhGTVzRm-28" value="&lt;font&gt;STORE&lt;/font&gt;" style="rounded=0;whiteSpace=wrap;html=1;fillColor=none;fontSize=11;" parent="1" vertex="1">
          <mxGeometry x="766" y="184.25" width="90" height="40" as="geometry" />
        </mxCell>
        <mxCell id="ANEjqbXVITIKJhGTVzRm-32" value="&lt;font style=&quot;font-size: 11px;&quot;&gt;(0, n)&lt;/font&gt;" style="text;html=1;align=center;verticalAlign=middle;resizable=0;points=[];autosize=1;strokeColor=none;fillColor=none;" parent="1" vertex="1">
          <mxGeometry x="507" y="210" width="50" height="30" as="geometry" />
        </mxCell>
        <mxCell id="ANEjqbXVITIKJhGTVzRm-34" value="creates" style="shape=rhombus;perimeter=rhombusPerimeter;whiteSpace=wrap;html=1;align=center;fillColor=none;fontSize=11;" parent="1" vertex="1">
          <mxGeometry x="598" y="192" width="100" height="45" as="geometry" />
        </mxCell>
        <mxCell id="ANEjqbXVITIKJhGTVzRm-37" value="" style="endArrow=none;html=1;rounded=0;entryX=1;entryY=0.5;entryDx=0;entryDy=0;exitX=0;exitY=0.75;exitDx=0;exitDy=0;fontSize=11;" parent="1" source="ANEjqbXVITIKJhGTVzRm-28" target="ANEjqbXVITIKJhGTVzRm-34" edge="1">
          <mxGeometry width="50" height="50" relative="1" as="geometry">
            <mxPoint x="473" y="235.5" as="sourcePoint" />
            <mxPoint x="473" y="380.5" as="targetPoint" />
            <Array as="points" />
          </mxGeometry>
        </mxCell>
        <mxCell id="ANEjqbXVITIKJhGTVzRm-47" value="&lt;font style=&quot;font-size: 11px;&quot;&gt;(0, n)&lt;/font&gt;" style="text;html=1;align=center;verticalAlign=middle;resizable=0;points=[];autosize=1;strokeColor=none;fillColor=none;" parent="1" vertex="1">
          <mxGeometry x="768" y="219.25" width="50" height="30" as="geometry" />
        </mxCell>
        <mxCell id="ANEjqbXVITIKJhGTVzRm-48" value="&lt;font style=&quot;font-size: 11px;&quot;&gt;(1, 1)&lt;/font&gt;" style="text;html=1;align=center;verticalAlign=middle;resizable=0;points=[];autosize=1;strokeColor=none;fillColor=none;" parent="1" vertex="1">
          <mxGeometry x="722" y="189.25" width="50" height="30" as="geometry" />
        </mxCell>
        <mxCell id="ANEjqbXVITIKJhGTVzRm-55" value="" style="endArrow=none;html=1;rounded=0;exitX=1;exitY=0.5;exitDx=0;exitDy=0;fontSize=11;entryX=0;entryY=0.5;entryDx=0;entryDy=0;" parent="1" target="ANEjqbXVITIKJhGTVzRm-57" edge="1">
          <mxGeometry width="50" height="50" relative="1" as="geometry">
            <mxPoint x="856" y="213.75" as="sourcePoint" />
            <mxPoint x="846.08" y="308.75" as="targetPoint" />
            <Array as="points" />
          </mxGeometry>
        </mxCell>
        <mxCell id="ANEjqbXVITIKJhGTVzRm-57" value="" style="ellipse;whiteSpace=wrap;html=1;aspect=fixed;fillColor=none;fontSize=11;" parent="1" vertex="1">
          <mxGeometry x="881" y="208.75" width="10" height="10" as="geometry" />
        </mxCell>
        <mxCell id="ANEjqbXVITIKJhGTVzRm-61" value="name" style="text;html=1;align=left;verticalAlign=middle;resizable=0;points=[];autosize=1;strokeColor=none;fillColor=none;" parent="1" vertex="1">
          <mxGeometry x="891" y="197.25" width="50" height="30" as="geometry" />
        </mxCell>
        <mxCell id="ANEjqbXVITIKJhGTVzRm-72" value="" style="endArrow=none;html=1;rounded=0;fontSize=11;entryX=0;entryY=0.5;entryDx=0;entryDy=0;exitX=1;exitY=0.25;exitDx=0;exitDy=0;" parent="1" source="ANEjqbXVITIKJhGTVzRm-28" target="ANEjqbXVITIKJhGTVzRm-73" edge="1">
          <mxGeometry width="50" height="50" relative="1" as="geometry">
            <mxPoint x="856.0000000000002" y="203.75" as="sourcePoint" />
            <mxPoint x="861" y="308.75" as="targetPoint" />
            <Array as="points" />
          </mxGeometry>
        </mxCell>
        <mxCell id="ANEjqbXVITIKJhGTVzRm-73" value="" style="ellipse;whiteSpace=wrap;html=1;aspect=fixed;fillColor=light-dark(#FFFFFF,#FFFFFF);fontSize=11;direction=east;" parent="1" vertex="1">
          <mxGeometry x="881" y="189.25" width="10" height="10" as="geometry" />
        </mxCell>
        <mxCell id="ANEjqbXVITIKJhGTVzRm-75" value="id" style="text;html=1;align=left;verticalAlign=middle;resizable=0;points=[];autosize=1;strokeColor=none;fillColor=none;" parent="1" vertex="1">
          <mxGeometry x="891" y="178.75" width="30" height="30" as="geometry" />
        </mxCell>
        <mxCell id="ANEjqbXVITIKJhGTVzRm-77" value="makes" style="shape=rhombus;perimeter=rhombusPerimeter;whiteSpace=wrap;html=1;align=center;fillColor=none;fontSize=11;" parent="1" vertex="1">
          <mxGeometry x="417" y="288.75" width="100" height="45" as="geometry" />
        </mxCell>
        <mxCell id="ANEjqbXVITIKJhGTVzRm-78" value="" style="endArrow=none;html=1;rounded=0;fontSize=11;exitX=0.5;exitY=1;exitDx=0;exitDy=0;entryX=0.5;entryY=0;entryDx=0;entryDy=0;" parent="1" source="ANEjqbXVITIKJhGTVzRm-28" target="4KIPaqX-MfsETcOZ9-r2-4" edge="1">
          <mxGeometry width="50" height="50" relative="1" as="geometry">
            <mxPoint x="750.19" y="265.27000000000004" as="sourcePoint" />
            <mxPoint x="811" y="274.25" as="targetPoint" />
            <Array as="points" />
          </mxGeometry>
        </mxCell>
        <mxCell id="ANEjqbXVITIKJhGTVzRm-79" value="&lt;font style=&quot;font-size: 11px;&quot;&gt;(0,n)&lt;/font&gt;" style="text;html=1;align=center;verticalAlign=middle;resizable=0;points=[];autosize=1;strokeColor=none;fillColor=none;" parent="1" vertex="1">
          <mxGeometry x="458" y="221" width="50" height="30" as="geometry" />
        </mxCell>
        <mxCell id="Vg8crvU1tJOl-V_Ojh_K-6" value="&lt;font style=&quot;font-size: 11px;&quot;&gt;(0, n)&lt;/font&gt;" style="text;html=1;align=center;verticalAlign=middle;resizable=0;points=[];autosize=1;strokeColor=none;fillColor=none;" parent="1" vertex="1">
          <mxGeometry x="507" y="190" width="50" height="30" as="geometry" />
        </mxCell>
        <mxCell id="Vg8crvU1tJOl-V_Ojh_K-8" value="" style="endArrow=none;html=1;rounded=0;fontSize=11;exitX=1;exitY=0.75;exitDx=0;exitDy=0;entryX=0;entryY=0.5;entryDx=0;entryDy=0;" parent="1" source="_rXOLrQLvxj1EaKKoI4X-3" target="ANEjqbXVITIKJhGTVzRm-34" edge="1">
          <mxGeometry width="50" height="50" relative="1" as="geometry">
            <mxPoint x="456" y="234" as="sourcePoint" />
            <mxPoint x="587" y="225" as="targetPoint" />
            <Array as="points" />
          </mxGeometry>
        </mxCell>
        <mxCell id="4KIPaqX-MfsETcOZ9-r2-4" value="sells" style="shape=rhombus;perimeter=rhombusPerimeter;whiteSpace=wrap;html=1;align=center;fillColor=none;fontSize=11;" parent="1" vertex="1">
          <mxGeometry x="762" y="278.75" width="100" height="45" as="geometry" />
        </mxCell>
        <mxCell id="4KIPaqX-MfsETcOZ9-r2-5" value="" style="endArrow=none;html=1;rounded=0;fontSize=11;exitX=0.5;exitY=1;exitDx=0;exitDy=0;" parent="1" source="_rXOLrQLvxj1EaKKoI4X-3" target="ANEjqbXVITIKJhGTVzRm-77" edge="1">
          <mxGeometry width="50" height="50" relative="1" as="geometry">
            <mxPoint x="522" y="225" as="sourcePoint" />
            <mxPoint x="602" y="226" as="targetPoint" />
            <Array as="points" />
          </mxGeometry>
        </mxCell>
        <mxCell id="4KIPaqX-MfsETcOZ9-r2-6" value="&lt;font&gt;PRODUCT&lt;/font&gt;" style="rounded=0;whiteSpace=wrap;html=1;fillColor=none;fontSize=11;" parent="1" vertex="1">
          <mxGeometry x="767" y="383.75" width="90" height="40" as="geometry" />
        </mxCell>
        <mxCell id="4KIPaqX-MfsETcOZ9-r2-7" value="" style="endArrow=none;html=1;rounded=0;fontSize=11;entryX=0.5;entryY=1;entryDx=0;entryDy=0;exitX=0.5;exitY=0;exitDx=0;exitDy=0;" parent="1" source="4KIPaqX-MfsETcOZ9-r2-49" target="ANEjqbXVITIKJhGTVzRm-77" edge="1">
          <mxGeometry width="50" height="50" relative="1" as="geometry">
            <mxPoint x="597" y="400" as="sourcePoint" />
            <mxPoint x="477" y="325" as="targetPoint" />
            <Array as="points" />
          </mxGeometry>
        </mxCell>
        <mxCell id="4KIPaqX-MfsETcOZ9-r2-10" value="&lt;font style=&quot;font-size: 11px;&quot;&gt;(1, 1)&lt;/font&gt;" style="text;html=1;align=center;verticalAlign=middle;resizable=0;points=[];autosize=1;strokeColor=none;fillColor=none;" parent="1" vertex="1">
          <mxGeometry x="769" y="357.75" width="50" height="30" as="geometry" />
        </mxCell>
        <mxCell id="4KIPaqX-MfsETcOZ9-r2-12" value="" style="endArrow=none;html=1;rounded=0;exitX=0;exitY=0.5;exitDx=0;exitDy=0;fontSize=11;entryX=1;entryY=0;entryDx=0;entryDy=0;" parent="1" source="4KIPaqX-MfsETcOZ9-r2-13" target="4KIPaqX-MfsETcOZ9-r2-6" edge="1">
          <mxGeometry width="50" height="50" relative="1" as="geometry">
            <mxPoint x="828.22" y="434.09000000000003" as="sourcePoint" />
            <mxPoint x="828.5" y="466.75" as="targetPoint" />
            <Array as="points">
              <mxPoint x="866" y="370.25" />
            </Array>
          </mxGeometry>
        </mxCell>
        <mxCell id="4KIPaqX-MfsETcOZ9-r2-13" value="" style="ellipse;whiteSpace=wrap;html=1;aspect=fixed;fillColor=none;fontSize=11;" parent="1" vertex="1">
          <mxGeometry x="892.5" y="365.25" width="10" height="10" as="geometry" />
        </mxCell>
        <mxCell id="4KIPaqX-MfsETcOZ9-r2-14" value="name" style="text;html=1;align=left;verticalAlign=middle;resizable=0;points=[];autosize=1;strokeColor=none;fillColor=none;" parent="1" vertex="1">
          <mxGeometry x="902.5" y="355.25" width="50" height="30" as="geometry" />
        </mxCell>
        <mxCell id="4KIPaqX-MfsETcOZ9-r2-15" value="" style="endArrow=none;html=1;rounded=0;fontSize=11;entryX=0;entryY=0.5;entryDx=0;entryDy=0;exitX=0.836;exitY=-0.012;exitDx=0;exitDy=0;exitPerimeter=0;" parent="1" source="4KIPaqX-MfsETcOZ9-r2-6" target="4KIPaqX-MfsETcOZ9-r2-16" edge="1">
          <mxGeometry width="50" height="50" relative="1" as="geometry">
            <mxPoint x="787.5" y="453.75" as="sourcePoint" />
            <mxPoint x="792.5" y="568.25" as="targetPoint" />
            <Array as="points">
              <mxPoint x="866" y="349.25" />
            </Array>
          </mxGeometry>
        </mxCell>
        <mxCell id="4KIPaqX-MfsETcOZ9-r2-16" value="" style="ellipse;whiteSpace=wrap;html=1;aspect=fixed;fillColor=light-dark(#FFFFFF,#FFFFFF);fontSize=11;direction=east;" parent="1" vertex="1">
          <mxGeometry x="891" y="345.25" width="10" height="10" as="geometry" />
        </mxCell>
        <mxCell id="4KIPaqX-MfsETcOZ9-r2-17" value="id" style="text;html=1;align=left;verticalAlign=middle;resizable=0;points=[];autosize=1;strokeColor=none;fillColor=none;" parent="1" vertex="1">
          <mxGeometry x="901" y="335.25" width="30" height="30" as="geometry" />
        </mxCell>
        <mxCell id="4KIPaqX-MfsETcOZ9-r2-28" value="" style="endArrow=none;html=1;rounded=0;exitX=1;exitY=0.25;exitDx=0;exitDy=0;fontSize=11;entryX=0;entryY=0.5;entryDx=0;entryDy=0;" parent="1" source="4KIPaqX-MfsETcOZ9-r2-6" target="4KIPaqX-MfsETcOZ9-r2-29" edge="1">
          <mxGeometry width="50" height="50" relative="1" as="geometry">
            <mxPoint x="813.5" y="435.25" as="sourcePoint" />
            <mxPoint x="813.5" y="468.25" as="targetPoint" />
            <Array as="points">
              <mxPoint x="866" y="390.25" />
            </Array>
          </mxGeometry>
        </mxCell>
        <mxCell id="4KIPaqX-MfsETcOZ9-r2-29" value="" style="ellipse;whiteSpace=wrap;html=1;aspect=fixed;fillColor=none;fontSize=11;" parent="1" vertex="1">
          <mxGeometry x="892.5" y="385.25" width="10" height="10" as="geometry" />
        </mxCell>
        <mxCell id="4KIPaqX-MfsETcOZ9-r2-30" value="description" style="text;html=1;align=left;verticalAlign=middle;resizable=0;points=[];autosize=1;strokeColor=none;fillColor=none;" parent="1" vertex="1">
          <mxGeometry x="904" y="375.25" width="80" height="30" as="geometry" />
        </mxCell>
        <mxCell id="4KIPaqX-MfsETcOZ9-r2-31" value="" style="endArrow=none;html=1;rounded=0;fontSize=11;exitX=0.5;exitY=1;exitDx=0;exitDy=0;entryX=0.5;entryY=0;entryDx=0;entryDy=0;" parent="1" source="4KIPaqX-MfsETcOZ9-r2-4" target="4KIPaqX-MfsETcOZ9-r2-6" edge="1">
          <mxGeometry width="50" height="50" relative="1" as="geometry">
            <mxPoint x="811.76" y="343.75" as="sourcePoint" />
            <mxPoint x="811.76" y="413.75" as="targetPoint" />
            <Array as="points" />
          </mxGeometry>
        </mxCell>
        <mxCell id="4KIPaqX-MfsETcOZ9-r2-32" value="" style="endArrow=none;html=1;rounded=0;exitX=0.997;exitY=0.663;exitDx=0;exitDy=0;fontSize=11;entryX=0;entryY=0.5;entryDx=0;entryDy=0;exitPerimeter=0;" parent="1" target="4KIPaqX-MfsETcOZ9-r2-33" edge="1" source="4KIPaqX-MfsETcOZ9-r2-6">
          <mxGeometry width="50" height="50" relative="1" as="geometry">
            <mxPoint x="857" y="423.75" as="sourcePoint" />
            <mxPoint x="813.5" y="488.25" as="targetPoint" />
            <Array as="points" />
          </mxGeometry>
        </mxCell>
        <mxCell id="4KIPaqX-MfsETcOZ9-r2-33" value="" style="ellipse;whiteSpace=wrap;html=1;aspect=fixed;fillColor=none;fontSize=11;" parent="1" vertex="1">
          <mxGeometry x="892.5" y="405.25" width="10" height="10" as="geometry" />
        </mxCell>
        <mxCell id="4KIPaqX-MfsETcOZ9-r2-34" value="stock" style="text;html=1;align=left;verticalAlign=middle;resizable=0;points=[];autosize=1;strokeColor=none;fillColor=none;" parent="1" vertex="1">
          <mxGeometry x="902.5" y="395.25" width="50" height="30" as="geometry" />
        </mxCell>
        <mxCell id="4KIPaqX-MfsETcOZ9-r2-35" value="" style="endArrow=none;html=1;rounded=0;exitX=1;exitY=0.886;exitDx=0;exitDy=0;fontSize=11;entryX=0;entryY=0.5;entryDx=0;entryDy=0;exitPerimeter=0;" parent="1" source="4KIPaqX-MfsETcOZ9-r2-6" target="4KIPaqX-MfsETcOZ9-r2-36" edge="1">
          <mxGeometry width="50" height="50" relative="1" as="geometry">
            <mxPoint x="857.75" y="443.75" as="sourcePoint" />
            <mxPoint x="814.25" y="508.25" as="targetPoint" />
            <Array as="points">
              <mxPoint x="866" y="430.25" />
            </Array>
          </mxGeometry>
        </mxCell>
        <mxCell id="4KIPaqX-MfsETcOZ9-r2-36" value="" style="ellipse;whiteSpace=wrap;html=1;aspect=fixed;fillColor=none;fontSize=11;" parent="1" vertex="1">
          <mxGeometry x="892.5" y="425.25" width="10" height="10" as="geometry" />
        </mxCell>
        <mxCell id="4KIPaqX-MfsETcOZ9-r2-37" value="price" style="text;html=1;align=left;verticalAlign=middle;resizable=0;points=[];autosize=1;strokeColor=none;fillColor=none;" parent="1" vertex="1">
          <mxGeometry x="902.5" y="415.25" width="50" height="30" as="geometry" />
        </mxCell>
        <mxCell id="4KIPaqX-MfsETcOZ9-r2-39" value="" style="endArrow=none;html=1;rounded=0;exitX=0.915;exitY=0.998;exitDx=0;exitDy=0;fontSize=11;entryX=0;entryY=0.5;entryDx=0;entryDy=0;exitPerimeter=0;" parent="1" source="4KIPaqX-MfsETcOZ9-r2-6" target="4KIPaqX-MfsETcOZ9-r2-40" edge="1">
          <mxGeometry width="50" height="50" relative="1" as="geometry">
            <mxPoint x="850.52" y="425.03" as="sourcePoint" />
            <mxPoint x="882.5000000000141" y="449.25" as="targetPoint" />
            <Array as="points">
              <mxPoint x="866" y="450.25" />
            </Array>
          </mxGeometry>
        </mxCell>
        <mxCell id="4KIPaqX-MfsETcOZ9-r2-40" value="" style="ellipse;whiteSpace=wrap;html=1;aspect=fixed;fillColor=none;fontSize=11;" parent="1" vertex="1">
          <mxGeometry x="892.5" y="445.25" width="10" height="10" as="geometry" />
        </mxCell>
        <mxCell id="4KIPaqX-MfsETcOZ9-r2-41" value="discount" style="text;html=1;align=left;verticalAlign=middle;resizable=0;points=[];autosize=1;strokeColor=none;fillColor=none;" parent="1" vertex="1">
          <mxGeometry x="902.5" y="436" width="70" height="30" as="geometry" />
        </mxCell>
        <mxCell id="4KIPaqX-MfsETcOZ9-r2-45" value="" style="endArrow=none;html=1;rounded=0;exitX=0.75;exitY=1;exitDx=0;exitDy=0;fontSize=11;entryX=0;entryY=0.5;entryDx=0;entryDy=0;" parent="1" source="4KIPaqX-MfsETcOZ9-r2-6" target="4KIPaqX-MfsETcOZ9-r2-46" edge="1">
          <mxGeometry width="50" height="50" relative="1" as="geometry">
            <mxPoint x="842" y="438.75" as="sourcePoint" />
            <mxPoint x="814.25" y="538.25" as="targetPoint" />
            <Array as="points">
              <mxPoint x="866" y="470.25" />
            </Array>
          </mxGeometry>
        </mxCell>
        <mxCell id="4KIPaqX-MfsETcOZ9-r2-46" value="" style="ellipse;whiteSpace=wrap;html=1;aspect=fixed;fillColor=none;fontSize=11;" parent="1" vertex="1">
          <mxGeometry x="892.5" y="465.25" width="10" height="10" as="geometry" />
        </mxCell>
        <mxCell id="4KIPaqX-MfsETcOZ9-r2-47" value="color" style="text;html=1;align=left;verticalAlign=middle;resizable=0;points=[];autosize=1;strokeColor=none;fillColor=none;" parent="1" vertex="1">
          <mxGeometry x="902.5" y="455.25" width="50" height="30" as="geometry" />
        </mxCell>
        <mxCell id="4KIPaqX-MfsETcOZ9-r2-48" value="(0,n)" style="text;html=1;align=center;verticalAlign=middle;resizable=0;points=[];autosize=1;strokeColor=none;fillColor=none;" parent="1" vertex="1">
          <mxGeometry x="854" y="461.25" width="50" height="30" as="geometry" />
        </mxCell>
        <mxCell id="4KIPaqX-MfsETcOZ9-r2-49" value="&lt;font&gt;ORDER&lt;/font&gt;" style="rounded=0;whiteSpace=wrap;html=1;fillColor=none;fontSize=11;" parent="1" vertex="1">
          <mxGeometry x="422" y="385.5" width="90" height="40" as="geometry" />
        </mxCell>
        <mxCell id="4KIPaqX-MfsETcOZ9-r2-50" value="includes" style="shape=rhombus;perimeter=rhombusPerimeter;whiteSpace=wrap;html=1;align=center;fillColor=none;fontSize=11;" parent="1" vertex="1">
          <mxGeometry x="586" y="382.5" width="100" height="45" as="geometry" />
        </mxCell>
        <mxCell id="4KIPaqX-MfsETcOZ9-r2-52" value="" style="endArrow=none;html=1;rounded=0;fontSize=11;entryX=1;entryY=0.5;entryDx=0;entryDy=0;exitX=0;exitY=0.5;exitDx=0;exitDy=0;" parent="1" source="4KIPaqX-MfsETcOZ9-r2-6" target="4KIPaqX-MfsETcOZ9-r2-50" edge="1">
          <mxGeometry width="50" height="50" relative="1" as="geometry">
            <mxPoint x="808" y="425" as="sourcePoint" />
            <mxPoint x="658" y="435" as="targetPoint" />
            <Array as="points" />
          </mxGeometry>
        </mxCell>
        <mxCell id="4KIPaqX-MfsETcOZ9-r2-54" value="&lt;font style=&quot;font-size: 11px;&quot;&gt;(1,n)&lt;/font&gt;" style="text;html=1;align=center;verticalAlign=middle;resizable=0;points=[];autosize=1;strokeColor=none;fillColor=none;" parent="1" vertex="1">
          <mxGeometry x="507" y="379" width="50" height="30" as="geometry" />
        </mxCell>
        <mxCell id="4KIPaqX-MfsETcOZ9-r2-56" value="&lt;font style=&quot;font-size: 11px;&quot;&gt;(0,n)&lt;/font&gt;" style="text;html=1;align=center;verticalAlign=middle;resizable=0;points=[];autosize=1;strokeColor=none;fillColor=none;" parent="1" vertex="1">
          <mxGeometry x="720" y="376.25" width="50" height="30" as="geometry" />
        </mxCell>
        <mxCell id="4KIPaqX-MfsETcOZ9-r2-57" value="" style="endArrow=none;html=1;rounded=0;exitX=1;exitY=1;exitDx=0;exitDy=0;fontSize=11;entryX=0.5;entryY=0;entryDx=0;entryDy=0;" parent="1" source="4KIPaqX-MfsETcOZ9-r2-50" target="4KIPaqX-MfsETcOZ9-r2-58" edge="1">
          <mxGeometry width="50" height="50" relative="1" as="geometry">
            <mxPoint x="460" y="342" as="sourcePoint" />
            <mxPoint x="381" y="522" as="targetPoint" />
            <Array as="points" />
          </mxGeometry>
        </mxCell>
        <mxCell id="4KIPaqX-MfsETcOZ9-r2-58" value="" style="ellipse;whiteSpace=wrap;html=1;aspect=fixed;fillColor=none;fontSize=11;" parent="1" vertex="1">
          <mxGeometry x="656" y="440.5" width="10" height="10" as="geometry" />
        </mxCell>
        <mxCell id="4KIPaqX-MfsETcOZ9-r2-60" value="price" style="text;html=1;align=center;verticalAlign=middle;resizable=0;points=[];autosize=1;strokeColor=none;fillColor=none;" parent="1" vertex="1">
          <mxGeometry x="656" y="430.5" width="50" height="30" as="geometry" />
        </mxCell>
        <mxCell id="4KIPaqX-MfsETcOZ9-r2-61" value="total_price" style="text;html=1;align=center;verticalAlign=middle;resizable=0;points=[];autosize=1;strokeColor=none;fillColor=none;" parent="1" vertex="1">
          <mxGeometry x="359" y="436" width="80" height="30" as="geometry" />
        </mxCell>
        <mxCell id="4KIPaqX-MfsETcOZ9-r2-62" value="" style="endArrow=none;html=1;rounded=0;exitX=0.138;exitY=1.002;exitDx=0;exitDy=0;fontSize=11;entryX=0.5;entryY=0;entryDx=0;entryDy=0;exitPerimeter=0;" parent="1" source="4KIPaqX-MfsETcOZ9-r2-49" target="4KIPaqX-MfsETcOZ9-r2-63" edge="1">
          <mxGeometry width="50" height="50" relative="1" as="geometry">
            <mxPoint x="477.53" y="462.5" as="sourcePoint" />
            <mxPoint x="497.53" y="485" as="targetPoint" />
            <Array as="points" />
          </mxGeometry>
        </mxCell>
        <mxCell id="4KIPaqX-MfsETcOZ9-r2-63" value="" style="ellipse;whiteSpace=wrap;html=1;aspect=fixed;fillColor=none;fontSize=11;" parent="1" vertex="1">
          <mxGeometry x="429" y="446" width="10" height="10" as="geometry" />
        </mxCell>
        <mxCell id="4KIPaqX-MfsETcOZ9-r2-69" value="invoice_number" style="text;html=1;align=center;verticalAlign=middle;resizable=0;points=[];autosize=1;strokeColor=none;fillColor=none;" parent="1" vertex="1">
          <mxGeometry x="362" y="467" width="110" height="30" as="geometry" />
        </mxCell>
        <mxCell id="4KIPaqX-MfsETcOZ9-r2-70" value="" style="endArrow=none;html=1;rounded=0;exitX=0.308;exitY=1.007;exitDx=0;exitDy=0;fontSize=11;entryX=0.5;entryY=0;entryDx=0;entryDy=0;exitPerimeter=0;" parent="1" target="4KIPaqX-MfsETcOZ9-r2-71" edge="1" source="4KIPaqX-MfsETcOZ9-r2-49">
          <mxGeometry width="50" height="50" relative="1" as="geometry">
            <mxPoint x="477.6199999999999" y="482.15999999999997" as="sourcePoint" />
            <mxPoint x="497.53" y="503" as="targetPoint" />
            <Array as="points" />
          </mxGeometry>
        </mxCell>
        <mxCell id="4KIPaqX-MfsETcOZ9-r2-71" value="" style="ellipse;whiteSpace=wrap;html=1;aspect=fixed;fillColor=none;fontSize=11;" parent="1" vertex="1">
          <mxGeometry x="445" y="461" width="9.5" height="9.5" as="geometry" />
        </mxCell>
        <mxCell id="4KIPaqX-MfsETcOZ9-r2-72" value="id" style="text;html=1;align=center;verticalAlign=middle;resizable=0;points=[];autosize=1;strokeColor=none;fillColor=none;" parent="1" vertex="1">
          <mxGeometry x="456" y="485" width="30" height="30" as="geometry" />
        </mxCell>
        <mxCell id="4KIPaqX-MfsETcOZ9-r2-73" value="" style="endArrow=none;html=1;rounded=0;exitX=0.5;exitY=1;exitDx=0;exitDy=0;fontSize=11;entryX=0.5;entryY=0;entryDx=0;entryDy=0;" parent="1" source="4KIPaqX-MfsETcOZ9-r2-49" target="4KIPaqX-MfsETcOZ9-r2-74" edge="1">
          <mxGeometry width="50" height="50" relative="1" as="geometry">
            <mxPoint x="477.53" y="502.5" as="sourcePoint" />
            <mxPoint x="497.53" y="524.5" as="targetPoint" />
            <Array as="points" />
          </mxGeometry>
        </mxCell>
        <mxCell id="4KIPaqX-MfsETcOZ9-r2-74" value="" style="ellipse;whiteSpace=wrap;html=1;aspect=fixed;fillColor=light-dark(#FFFFFF,#FFFFFF);fontSize=11;" parent="1" vertex="1">
          <mxGeometry x="462" y="476" width="10" height="10" as="geometry" />
        </mxCell>
        <mxCell id="4KIPaqX-MfsETcOZ9-r2-79" value="&lt;font style=&quot;font-size: 11px;&quot;&gt;(1,1)&lt;/font&gt;" style="text;html=1;align=center;verticalAlign=middle;resizable=0;points=[];autosize=1;strokeColor=none;fillColor=none;" parent="1" vertex="1">
          <mxGeometry x="456" y="358.5" width="50" height="30" as="geometry" />
        </mxCell>
        <mxCell id="4KIPaqX-MfsETcOZ9-r2-82" value="" style="ellipse;whiteSpace=wrap;html=1;aspect=fixed;fillColor=none;" parent="1" vertex="1">
          <mxGeometry x="113.08000000000001" y="228.25" width="10" height="10" as="geometry" />
        </mxCell>
        <mxCell id="4KIPaqX-MfsETcOZ9-r2-83" value="" style="endArrow=none;html=1;rounded=0;exitX=1;exitY=0.5;exitDx=0;exitDy=0;entryX=0;entryY=1;entryDx=0;entryDy=0;" parent="1" source="4KIPaqX-MfsETcOZ9-r2-82" target="s2k1O6hxHJqLAfQbQuCl-25" edge="1">
          <mxGeometry width="50" height="50" relative="1" as="geometry">
            <mxPoint x="123.07999999999933" y="235.25" as="sourcePoint" />
            <mxPoint x="149.19999999999982" y="221.81" as="targetPoint" />
            <Array as="points">
              <mxPoint x="142" y="233" />
            </Array>
          </mxGeometry>
        </mxCell>
        <mxCell id="4KIPaqX-MfsETcOZ9-r2-84" value="street" style="text;html=1;align=center;verticalAlign=middle;resizable=0;points=[];autosize=1;strokeColor=none;fillColor=none;" parent="1" vertex="1">
          <mxGeometry x="69" y="218.25" width="50" height="30" as="geometry" />
        </mxCell>
        <mxCell id="4KIPaqX-MfsETcOZ9-r2-85" value="" style="endArrow=none;html=1;rounded=0;exitX=1;exitY=0.5;exitDx=0;exitDy=0;entryX=0.119;entryY=1.001;entryDx=0;entryDy=0;entryPerimeter=0;" parent="1" source="4KIPaqX-MfsETcOZ9-r2-87" target="s2k1O6hxHJqLAfQbQuCl-25" edge="1">
          <mxGeometry width="50" height="50" relative="1" as="geometry">
            <mxPoint x="116.08000000000001" y="256.25" as="sourcePoint" />
            <mxPoint x="172" y="240" as="targetPoint" />
            <Array as="points">
              <mxPoint x="142" y="254" />
            </Array>
          </mxGeometry>
        </mxCell>
        <mxCell id="4KIPaqX-MfsETcOZ9-r2-86" value="number" style="text;html=1;align=center;verticalAlign=middle;resizable=0;points=[];autosize=1;strokeColor=none;fillColor=none;" parent="1" vertex="1">
          <mxGeometry x="59" y="238.75" width="60" height="30" as="geometry" />
        </mxCell>
        <mxCell id="4KIPaqX-MfsETcOZ9-r2-87" value="" style="ellipse;whiteSpace=wrap;html=1;aspect=fixed;fillColor=none;" parent="1" vertex="1">
          <mxGeometry x="113.08000000000001" y="248.75" width="10" height="10" as="geometry" />
        </mxCell>
        <mxCell id="4KIPaqX-MfsETcOZ9-r2-88" value="" style="endArrow=none;html=1;rounded=0;exitX=0.989;exitY=0.604;exitDx=0;exitDy=0;entryX=-0.001;entryY=0.728;entryDx=0;entryDy=0;exitPerimeter=0;entryPerimeter=0;" parent="1" edge="1" target="s2k1O6hxHJqLAfQbQuCl-25">
          <mxGeometry width="50" height="50" relative="1" as="geometry">
            <mxPoint x="122.97" y="214.28999999999996" as="sourcePoint" />
            <mxPoint x="146.08" y="214.75" as="targetPoint" />
          </mxGeometry>
        </mxCell>
        <mxCell id="4KIPaqX-MfsETcOZ9-r2-89" value="" style="ellipse;whiteSpace=wrap;html=1;aspect=fixed;fillColor=none;" parent="1" vertex="1">
          <mxGeometry x="113.08000000000001" y="209.25" width="10" height="10" as="geometry" />
        </mxCell>
        <mxCell id="4KIPaqX-MfsETcOZ9-r2-90" value="city" style="text;html=1;align=center;verticalAlign=middle;resizable=0;points=[];autosize=1;strokeColor=none;fillColor=none;" parent="1" vertex="1">
          <mxGeometry x="79" y="196.75" width="40" height="30" as="geometry" />
        </mxCell>
        <mxCell id="4KIPaqX-MfsETcOZ9-r2-92" value="" style="endArrow=none;html=1;rounded=0;exitX=1;exitY=0.5;exitDx=0;exitDy=0;entryX=0.25;entryY=1;entryDx=0;entryDy=0;" parent="1" source="4KIPaqX-MfsETcOZ9-r2-94" target="s2k1O6hxHJqLAfQbQuCl-25" edge="1">
          <mxGeometry width="50" height="50" relative="1" as="geometry">
            <mxPoint x="123.07999999999933" y="276.25" as="sourcePoint" />
            <mxPoint x="192" y="250" as="targetPoint" />
            <Array as="points">
              <mxPoint x="142" y="273" />
            </Array>
          </mxGeometry>
        </mxCell>
        <mxCell id="4KIPaqX-MfsETcOZ9-r2-93" value="unit" style="text;html=1;align=center;verticalAlign=middle;resizable=0;points=[];autosize=1;strokeColor=none;fillColor=none;" parent="1" vertex="1">
          <mxGeometry x="79" y="258.75" width="40" height="30" as="geometry" />
        </mxCell>
        <mxCell id="4KIPaqX-MfsETcOZ9-r2-94" value="" style="ellipse;whiteSpace=wrap;html=1;aspect=fixed;fillColor=none;" parent="1" vertex="1">
          <mxGeometry x="113.08000000000001" y="268.25" width="10" height="10" as="geometry" />
        </mxCell>
        <mxCell id="4KIPaqX-MfsETcOZ9-r2-97" value="" style="ellipse;whiteSpace=wrap;html=1;aspect=fixed;fillColor=none;" parent="1" vertex="1">
          <mxGeometry x="113.08000000000001" y="191.25" width="10" height="10" as="geometry" />
        </mxCell>
        <mxCell id="4KIPaqX-MfsETcOZ9-r2-98" value="country" style="text;html=1;align=center;verticalAlign=middle;resizable=0;points=[];autosize=1;strokeColor=none;fillColor=none;" parent="1" vertex="1">
          <mxGeometry x="59" y="161.25" width="60" height="30" as="geometry" />
        </mxCell>
        <mxCell id="4KIPaqX-MfsETcOZ9-r2-99" value="" style="endArrow=none;html=1;rounded=0;exitX=1;exitY=0.5;exitDx=0;exitDy=0;entryX=0;entryY=0;entryDx=0;entryDy=0;" parent="1" source="4KIPaqX-MfsETcOZ9-r2-100" target="s2k1O6hxHJqLAfQbQuCl-25" edge="1">
          <mxGeometry width="50" height="50" relative="1" as="geometry">
            <mxPoint x="122.97" y="175.29000000000002" as="sourcePoint" />
            <mxPoint x="156.46000000000004" y="204.32" as="targetPoint" />
            <Array as="points">
              <mxPoint x="142" y="177" />
            </Array>
          </mxGeometry>
        </mxCell>
        <mxCell id="4KIPaqX-MfsETcOZ9-r2-100" value="" style="ellipse;whiteSpace=wrap;html=1;aspect=fixed;fillColor=none;" parent="1" vertex="1">
          <mxGeometry x="113.08000000000001" y="172.25" width="10" height="10" as="geometry" />
        </mxCell>
        <mxCell id="4KIPaqX-MfsETcOZ9-r2-101" value="province" style="text;html=1;align=center;verticalAlign=middle;resizable=0;points=[];autosize=1;strokeColor=none;fillColor=none;" parent="1" vertex="1">
          <mxGeometry x="49" y="178.75" width="70" height="30" as="geometry" />
        </mxCell>
        <mxCell id="4KIPaqX-MfsETcOZ9-r2-105" value="status" style="text;html=1;align=center;verticalAlign=middle;resizable=0;points=[];autosize=1;strokeColor=none;fillColor=none;" parent="1" vertex="1">
          <mxGeometry x="396" y="450.75" width="60" height="30" as="geometry" />
        </mxCell>
        <mxCell id="4KIPaqX-MfsETcOZ9-r2-107" value="" style="ellipse;whiteSpace=wrap;html=1;aspect=fixed;fillColor=light-dark(#FFFFFF,#FFFFFF);fontSize=11;" parent="1" vertex="1">
          <mxGeometry x="480" y="495" width="10" height="10" as="geometry" />
        </mxCell>
        <mxCell id="s2k1O6hxHJqLAfQbQuCl-17" value="" style="endArrow=none;html=1;rounded=0;exitX=0.777;exitY=-0.01;exitDx=0;exitDy=0;entryX=0.5;entryY=1;entryDx=0;entryDy=0;exitPerimeter=0;" edge="1" parent="1" source="_rXOLrQLvxj1EaKKoI4X-3" target="ANEjqbXVITIKJhGTVzRm-21">
          <mxGeometry width="50" height="50" relative="1" as="geometry">
            <mxPoint x="440.44" y="169.76999999999998" as="sourcePoint" />
            <mxPoint x="463.55" y="170.23000000000002" as="targetPoint" />
          </mxGeometry>
        </mxCell>
        <mxCell id="s2k1O6hxHJqLAfQbQuCl-18" value="" style="ellipse;whiteSpace=wrap;html=1;aspect=fixed;fillColor=light-dark(#FFFFFF,#FFFFFF);fontSize=11;" vertex="1" parent="1">
          <mxGeometry x="472" y="150" width="10" height="10" as="geometry" />
        </mxCell>
        <mxCell id="s2k1O6hxHJqLAfQbQuCl-19" value="" style="endArrow=none;html=1;rounded=0;entryX=0.5;entryY=1;entryDx=0;entryDy=0;exitX=0.614;exitY=-0.004;exitDx=0;exitDy=0;exitPerimeter=0;" edge="1" parent="1" source="_rXOLrQLvxj1EaKKoI4X-3" target="s2k1O6hxHJqLAfQbQuCl-18">
          <mxGeometry width="50" height="50" relative="1" as="geometry">
            <mxPoint x="477" y="180" as="sourcePoint" />
            <mxPoint x="502" y="185" as="targetPoint" />
          </mxGeometry>
        </mxCell>
        <mxCell id="s2k1O6hxHJqLAfQbQuCl-20" value="" style="endArrow=none;html=1;rounded=0;entryX=0.5;entryY=1;entryDx=0;entryDy=0;exitX=0.458;exitY=0;exitDx=0;exitDy=0;exitPerimeter=0;" edge="1" parent="1" source="_rXOLrQLvxj1EaKKoI4X-3" target="_rXOLrQLvxj1EaKKoI4X-44">
          <mxGeometry width="50" height="50" relative="1" as="geometry">
            <mxPoint x="487" y="195" as="sourcePoint" />
            <mxPoint x="487" y="170" as="targetPoint" />
          </mxGeometry>
        </mxCell>
        <mxCell id="s2k1O6hxHJqLAfQbQuCl-21" value="" style="endArrow=none;html=1;rounded=0;entryX=0.5;entryY=1;entryDx=0;entryDy=0;exitX=0.317;exitY=0.007;exitDx=0;exitDy=0;exitPerimeter=0;" edge="1" parent="1" source="_rXOLrQLvxj1EaKKoI4X-3" target="_rXOLrQLvxj1EaKKoI4X-31">
          <mxGeometry width="50" height="50" relative="1" as="geometry">
            <mxPoint x="473" y="195" as="sourcePoint" />
            <mxPoint x="473" y="157" as="targetPoint" />
          </mxGeometry>
        </mxCell>
        <mxCell id="s2k1O6hxHJqLAfQbQuCl-22" value="has" style="shape=rhombus;perimeter=rhombusPerimeter;whiteSpace=wrap;html=1;align=center;fillColor=none;fontSize=11;" vertex="1" parent="1">
          <mxGeometry x="282" y="182.5" width="100" height="45" as="geometry" />
        </mxCell>
        <mxCell id="s2k1O6hxHJqLAfQbQuCl-23" value="" style="endArrow=none;html=1;rounded=0;fontSize=11;exitX=0;exitY=0.5;exitDx=0;exitDy=0;entryX=1;entryY=0.5;entryDx=0;entryDy=0;" edge="1" parent="1" source="_rXOLrQLvxj1EaKKoI4X-3" target="s2k1O6hxHJqLAfQbQuCl-22">
          <mxGeometry width="50" height="50" relative="1" as="geometry">
            <mxPoint x="522" y="225" as="sourcePoint" />
            <mxPoint x="382" y="210" as="targetPoint" />
            <Array as="points" />
          </mxGeometry>
        </mxCell>
        <mxCell id="s2k1O6hxHJqLAfQbQuCl-24" value="" style="endArrow=none;html=1;rounded=0;fontSize=11;exitX=0;exitY=0.5;exitDx=0;exitDy=0;entryX=1;entryY=0.5;entryDx=0;entryDy=0;" edge="1" parent="1" source="s2k1O6hxHJqLAfQbQuCl-22" target="s2k1O6hxHJqLAfQbQuCl-25">
          <mxGeometry width="50" height="50" relative="1" as="geometry">
            <mxPoint x="312" y="249.67000000000002" as="sourcePoint" />
            <mxPoint x="262" y="249.67000000000002" as="targetPoint" />
            <Array as="points" />
          </mxGeometry>
        </mxCell>
        <mxCell id="s2k1O6hxHJqLAfQbQuCl-25" value="&lt;font&gt;ADDRESS&lt;/font&gt;" style="rounded=0;whiteSpace=wrap;html=1;fillColor=none;fontSize=11;" vertex="1" parent="1">
          <mxGeometry x="152" y="185" width="90" height="40" as="geometry" />
        </mxCell>
        <mxCell id="s2k1O6hxHJqLAfQbQuCl-26" value="" style="ellipse;whiteSpace=wrap;html=1;aspect=fixed;fillColor=light-dark(#FFFFFF,#FFFFFF);" vertex="1" parent="1">
          <mxGeometry x="113.08000000000001" y="154.5" width="10" height="10" as="geometry" />
        </mxCell>
        <mxCell id="s2k1O6hxHJqLAfQbQuCl-27" value="id" style="text;html=1;align=right;verticalAlign=middle;resizable=0;points=[];autosize=1;strokeColor=none;fillColor=none;" vertex="1" parent="1">
          <mxGeometry x="79.00000000000001" y="144.5" width="30" height="30" as="geometry" />
        </mxCell>
        <mxCell id="s2k1O6hxHJqLAfQbQuCl-28" value="" style="endArrow=none;html=1;rounded=0;entryX=0.114;entryY=-0.003;entryDx=0;entryDy=0;entryPerimeter=0;exitX=1;exitY=0.5;exitDx=0;exitDy=0;" edge="1" parent="1" source="s2k1O6hxHJqLAfQbQuCl-26" target="s2k1O6hxHJqLAfQbQuCl-25">
          <mxGeometry width="50" height="50" relative="1" as="geometry">
            <mxPoint x="122" y="160" as="sourcePoint" />
            <mxPoint x="139.08000000000004" y="158" as="targetPoint" />
            <Array as="points">
              <mxPoint x="142" y="160" />
            </Array>
          </mxGeometry>
        </mxCell>
        <mxCell id="s2k1O6hxHJqLAfQbQuCl-31" value="" style="endArrow=none;html=1;rounded=0;exitX=1;exitY=0.5;exitDx=0;exitDy=0;entryX=-0.001;entryY=0.279;entryDx=0;entryDy=0;entryPerimeter=0;" edge="1" parent="1" source="4KIPaqX-MfsETcOZ9-r2-97" target="s2k1O6hxHJqLAfQbQuCl-25">
          <mxGeometry width="50" height="50" relative="1" as="geometry">
            <mxPoint x="132.97" y="224.28999999999996" as="sourcePoint" />
            <mxPoint x="156.08" y="224.75" as="targetPoint" />
          </mxGeometry>
        </mxCell>
        <mxCell id="s2k1O6hxHJqLAfQbQuCl-32" value="&lt;font style=&quot;font-size: 11px;&quot;&gt;(0,1)&lt;/font&gt;" style="text;html=1;align=center;verticalAlign=middle;resizable=0;points=[];autosize=1;strokeColor=none;fillColor=none;" vertex="1" parent="1">
          <mxGeometry x="142" y="240" width="50" height="30" as="geometry" />
        </mxCell>
        <mxCell id="s2k1O6hxHJqLAfQbQuCl-51" value="" style="endArrow=none;html=1;rounded=0;exitX=0.701;exitY=1.001;exitDx=0;exitDy=0;fontSize=11;entryX=0.5;entryY=0;entryDx=0;entryDy=0;exitPerimeter=0;" edge="1" parent="1" source="4KIPaqX-MfsETcOZ9-r2-49" target="4KIPaqX-MfsETcOZ9-r2-107">
          <mxGeometry width="50" height="50" relative="1" as="geometry">
            <mxPoint x="477" y="435.5" as="sourcePoint" />
            <mxPoint x="477" y="496.5" as="targetPoint" />
            <Array as="points" />
          </mxGeometry>
        </mxCell>
        <mxCell id="s2k1O6hxHJqLAfQbQuCl-53" value="" style="endArrow=none;html=1;rounded=0;fontSize=11;entryX=1;entryY=0.5;entryDx=0;entryDy=0;exitX=0;exitY=0.5;exitDx=0;exitDy=0;" edge="1" parent="1" source="4KIPaqX-MfsETcOZ9-r2-50" target="4KIPaqX-MfsETcOZ9-r2-49">
          <mxGeometry width="50" height="50" relative="1" as="geometry">
            <mxPoint x="831" y="415" as="sourcePoint" />
            <mxPoint x="715" y="415" as="targetPoint" />
            <Array as="points" />
          </mxGeometry>
        </mxCell>
        <mxCell id="s2k1O6hxHJqLAfQbQuCl-62" value="" style="endArrow=none;html=1;rounded=0;fontSize=11;entryX=0;entryY=0.5;entryDx=0;entryDy=0;exitX=0.607;exitY=0.993;exitDx=0;exitDy=0;exitPerimeter=0;" edge="1" parent="1" target="s2k1O6hxHJqLAfQbQuCl-63" source="4KIPaqX-MfsETcOZ9-r2-6">
          <mxGeometry width="50" height="50" relative="1" as="geometry">
            <mxPoint x="826" y="429.25" as="sourcePoint" />
            <mxPoint x="814.25" y="559.25" as="targetPoint" />
            <Array as="points">
              <mxPoint x="866" y="491.25" />
            </Array>
          </mxGeometry>
        </mxCell>
        <mxCell id="s2k1O6hxHJqLAfQbQuCl-63" value="" style="ellipse;whiteSpace=wrap;html=1;aspect=fixed;fillColor=none;fontSize=11;" vertex="1" parent="1">
          <mxGeometry x="892.5" y="486.25" width="10" height="10" as="geometry" />
        </mxCell>
        <mxCell id="s2k1O6hxHJqLAfQbQuCl-64" value="size" style="text;html=1;align=left;verticalAlign=middle;resizable=0;points=[];autosize=1;strokeColor=none;fillColor=none;" vertex="1" parent="1">
          <mxGeometry x="902.5" y="476.25" width="40" height="30" as="geometry" />
        </mxCell>
        <mxCell id="s2k1O6hxHJqLAfQbQuCl-65" value="(0,n)" style="text;html=1;align=center;verticalAlign=middle;resizable=0;points=[];autosize=1;strokeColor=none;fillColor=none;" vertex="1" parent="1">
          <mxGeometry x="854" y="482.25" width="50" height="30" as="geometry" />
        </mxCell>
        <mxCell id="s2k1O6hxHJqLAfQbQuCl-77" value="" style="endArrow=none;html=1;rounded=0;fontSize=11;entryX=0;entryY=0.5;entryDx=0;entryDy=0;exitX=0.445;exitY=0.999;exitDx=0;exitDy=0;exitPerimeter=0;" edge="1" parent="1" target="s2k1O6hxHJqLAfQbQuCl-78" source="4KIPaqX-MfsETcOZ9-r2-6">
          <mxGeometry width="50" height="50" relative="1" as="geometry">
            <mxPoint x="816" y="429.25" as="sourcePoint" />
            <mxPoint x="814.25" y="581.25" as="targetPoint" />
            <Array as="points">
              <mxPoint x="866" y="513.25" />
            </Array>
          </mxGeometry>
        </mxCell>
        <mxCell id="s2k1O6hxHJqLAfQbQuCl-78" value="" style="ellipse;whiteSpace=wrap;html=1;aspect=fixed;fillColor=none;fontSize=11;" vertex="1" parent="1">
          <mxGeometry x="892.5" y="508.25" width="10" height="10" as="geometry" />
        </mxCell>
        <mxCell id="s2k1O6hxHJqLAfQbQuCl-79" value="image" style="text;html=1;align=left;verticalAlign=middle;resizable=0;points=[];autosize=1;strokeColor=none;fillColor=none;" vertex="1" parent="1">
          <mxGeometry x="904" y="498.25" width="60" height="30" as="geometry" />
        </mxCell>
        <mxCell id="s2k1O6hxHJqLAfQbQuCl-80" value="(1,n)" style="text;html=1;align=center;verticalAlign=middle;resizable=0;points=[];autosize=1;strokeColor=none;fillColor=none;" vertex="1" parent="1">
          <mxGeometry x="854" y="504.25" width="50" height="30" as="geometry" />
        </mxCell>
        <mxCell id="s2k1O6hxHJqLAfQbQuCl-81" value="" style="endArrow=none;html=1;rounded=0;fontSize=11;entryX=0.5;entryY=0;entryDx=0;entryDy=0;exitX=0.291;exitY=0.205;exitDx=0;exitDy=0;exitPerimeter=0;" edge="1" target="s2k1O6hxHJqLAfQbQuCl-82" parent="1" source="4KIPaqX-MfsETcOZ9-r2-50">
          <mxGeometry width="50" height="50" relative="1" as="geometry">
            <mxPoint x="620.3" y="388.93500000000006" as="sourcePoint" />
            <mxPoint x="320" y="435.8" as="targetPoint" />
            <Array as="points" />
          </mxGeometry>
        </mxCell>
        <mxCell id="s2k1O6hxHJqLAfQbQuCl-82" value="" style="ellipse;whiteSpace=wrap;html=1;aspect=fixed;fillColor=none;fontSize=11;direction=west;" vertex="1" parent="1">
          <mxGeometry x="610" y="355" width="10" height="10" as="geometry" />
        </mxCell>
        <mxCell id="s2k1O6hxHJqLAfQbQuCl-83" value="quantity" style="text;html=1;align=center;verticalAlign=middle;resizable=0;points=[];autosize=1;strokeColor=none;fillColor=none;" vertex="1" parent="1">
          <mxGeometry x="550" y="345" width="70" height="30" as="geometry" />
        </mxCell>
        <mxCell id="s2k1O6hxHJqLAfQbQuCl-84" value="" style="endArrow=none;html=1;rounded=0;fontSize=11;entryX=0.5;entryY=0;entryDx=0;entryDy=0;exitX=0.5;exitY=0;exitDx=0;exitDy=0;" edge="1" parent="1" target="s2k1O6hxHJqLAfQbQuCl-85" source="4KIPaqX-MfsETcOZ9-r2-50">
          <mxGeometry width="50" height="50" relative="1" as="geometry">
            <mxPoint x="636" y="380" as="sourcePoint" />
            <mxPoint x="336" y="429.3" as="targetPoint" />
            <Array as="points" />
          </mxGeometry>
        </mxCell>
        <mxCell id="s2k1O6hxHJqLAfQbQuCl-85" value="" style="ellipse;whiteSpace=wrap;html=1;aspect=fixed;fillColor=none;fontSize=11;direction=west;" vertex="1" parent="1">
          <mxGeometry x="631" y="337.8" width="10" height="10" as="geometry" />
        </mxCell>
        <mxCell id="s2k1O6hxHJqLAfQbQuCl-86" value="color" style="text;html=1;align=center;verticalAlign=middle;resizable=0;points=[];autosize=1;strokeColor=none;fillColor=none;" vertex="1" parent="1">
          <mxGeometry x="590" y="326.67" width="50" height="30" as="geometry" />
        </mxCell>
        <mxCell id="s2k1O6hxHJqLAfQbQuCl-87" value="" style="endArrow=none;html=1;rounded=0;exitX=0.769;exitY=0.264;exitDx=0;exitDy=0;fontSize=11;entryX=0.5;entryY=0;entryDx=0;entryDy=0;exitPerimeter=0;" edge="1" parent="1" target="s2k1O6hxHJqLAfQbQuCl-88" source="4KIPaqX-MfsETcOZ9-r2-50">
          <mxGeometry width="50" height="50" relative="1" as="geometry">
            <mxPoint x="662.8999999999999" y="392.98499999999996" as="sourcePoint" />
            <mxPoint x="363" y="427.63" as="targetPoint" />
            <Array as="points" />
          </mxGeometry>
        </mxCell>
        <mxCell id="s2k1O6hxHJqLAfQbQuCl-88" value="" style="ellipse;whiteSpace=wrap;html=1;aspect=fixed;fillColor=none;fontSize=11;direction=west;" vertex="1" parent="1">
          <mxGeometry x="658" y="346.13" width="10" height="10" as="geometry" />
        </mxCell>
        <mxCell id="s2k1O6hxHJqLAfQbQuCl-89" value="size" style="text;html=1;align=center;verticalAlign=middle;resizable=0;points=[];autosize=1;strokeColor=none;fillColor=none;" vertex="1" parent="1">
          <mxGeometry x="661" y="335.01" width="40" height="30" as="geometry" />
        </mxCell>
        <mxCell id="s2k1O6hxHJqLAfQbQuCl-90" value="" style="endArrow=none;html=1;rounded=0;fontSize=11;entryX=0.5;entryY=0;entryDx=0;entryDy=0;exitX=0.5;exitY=1;exitDx=0;exitDy=0;" edge="1" parent="1" target="s2k1O6hxHJqLAfQbQuCl-91" source="4KIPaqX-MfsETcOZ9-r2-50">
          <mxGeometry width="50" height="50" relative="1" as="geometry">
            <mxPoint x="636" y="430" as="sourcePoint" />
            <mxPoint x="356" y="533.5" as="targetPoint" />
            <Array as="points" />
          </mxGeometry>
        </mxCell>
        <mxCell id="s2k1O6hxHJqLAfQbQuCl-91" value="" style="ellipse;whiteSpace=wrap;html=1;aspect=fixed;fillColor=none;fontSize=11;" vertex="1" parent="1">
          <mxGeometry x="631" y="456" width="10" height="10" as="geometry" />
        </mxCell>
        <mxCell id="s2k1O6hxHJqLAfQbQuCl-92" value="discount" style="text;html=1;align=center;verticalAlign=middle;resizable=0;points=[];autosize=1;strokeColor=none;fillColor=none;" vertex="1" parent="1">
          <mxGeometry x="631" y="446" width="70" height="30" as="geometry" />
        </mxCell>
        <mxCell id="s2k1O6hxHJqLAfQbQuCl-93" value="&lt;font style=&quot;font-size: 10px;&quot;&gt;(0,1)&lt;/font&gt;" style="text;html=1;align=center;verticalAlign=middle;resizable=0;points=[];autosize=1;strokeColor=none;fillColor=none;" vertex="1" parent="1">
          <mxGeometry x="656" y="360.21" width="40" height="30" as="geometry" />
        </mxCell>
        <mxCell id="s2k1O6hxHJqLAfQbQuCl-94" value="&lt;font style=&quot;font-size: 10px;&quot;&gt;(0,1)&lt;/font&gt;" style="text;html=1;align=center;verticalAlign=middle;resizable=0;points=[];autosize=1;strokeColor=none;fillColor=none;" vertex="1" parent="1">
          <mxGeometry x="628" y="352.5" width="40" height="30" as="geometry" />
        </mxCell>
        <mxCell id="s2k1O6hxHJqLAfQbQuCl-96" value="ships to" style="shape=rhombus;perimeter=rhombusPerimeter;whiteSpace=wrap;html=1;align=center;fillColor=none;fontSize=11;" vertex="1" parent="1">
          <mxGeometry x="147" y="382" width="100" height="45" as="geometry" />
        </mxCell>
        <mxCell id="s2k1O6hxHJqLAfQbQuCl-97" value="" style="endArrow=none;html=1;rounded=0;fontSize=11;exitX=1;exitY=0.5;exitDx=0;exitDy=0;entryX=0;entryY=0.5;entryDx=0;entryDy=0;" edge="1" parent="1" source="s2k1O6hxHJqLAfQbQuCl-96" target="4KIPaqX-MfsETcOZ9-r2-49">
          <mxGeometry width="50" height="50" relative="1" as="geometry">
            <mxPoint x="477" y="235" as="sourcePoint" />
            <mxPoint x="477" y="299" as="targetPoint" />
            <Array as="points" />
          </mxGeometry>
        </mxCell>
        <mxCell id="s2k1O6hxHJqLAfQbQuCl-98" value="" style="endArrow=none;html=1;rounded=0;fontSize=11;exitX=0.5;exitY=0;exitDx=0;exitDy=0;entryX=0.5;entryY=1;entryDx=0;entryDy=0;" edge="1" parent="1" source="s2k1O6hxHJqLAfQbQuCl-96" target="s2k1O6hxHJqLAfQbQuCl-25">
          <mxGeometry width="50" height="50" relative="1" as="geometry">
            <mxPoint x="290" y="414" as="sourcePoint" />
            <mxPoint x="432" y="416" as="targetPoint" />
            <Array as="points" />
          </mxGeometry>
        </mxCell>
        <mxCell id="s2k1O6hxHJqLAfQbQuCl-99" value="&lt;font style=&quot;font-size: 11px;&quot;&gt;(1,1)&lt;/font&gt;" style="text;html=1;align=center;verticalAlign=middle;resizable=0;points=[];autosize=1;strokeColor=none;fillColor=none;" vertex="1" parent="1">
          <mxGeometry x="374" y="379" width="50" height="30" as="geometry" />
        </mxCell>
        <mxCell id="s2k1O6hxHJqLAfQbQuCl-100" value="&lt;font style=&quot;font-size: 11px;&quot;&gt;(0,n)&lt;/font&gt;" style="text;html=1;align=center;verticalAlign=middle;resizable=0;points=[];autosize=1;strokeColor=none;fillColor=none;" vertex="1" parent="1">
          <mxGeometry x="190" y="225" width="50" height="30" as="geometry" />
        </mxCell>
        <mxCell id="s2k1O6hxHJqLAfQbQuCl-101" value="&lt;font style=&quot;font-size: 11px;&quot;&gt;(0,n)&lt;/font&gt;" style="text;html=1;align=center;verticalAlign=middle;resizable=0;points=[];autosize=1;strokeColor=none;fillColor=none;" vertex="1" parent="1">
          <mxGeometry x="381" y="181.25" width="50" height="30" as="geometry" />
        </mxCell>
        <mxCell id="s2k1O6hxHJqLAfQbQuCl-102" value="&lt;font style=&quot;font-size: 11px;&quot;&gt;(1,1)&lt;/font&gt;" style="text;html=1;align=center;verticalAlign=middle;resizable=0;points=[];autosize=1;strokeColor=none;fillColor=none;" vertex="1" parent="1">
          <mxGeometry x="233" y="178.75" width="50" height="30" as="geometry" />
        </mxCell>
      </root>
    </mxGraphModel>
  </diagram>
</mxfile>
